<?xml version="1.0" encoding="utf-8"?>
<!-- Generator: Adobe Illustrator 25.2.1, SVG Export Plug-In . SVG Version: 6.00 Build 0)  -->
<svg version="1.1" id="Layer_1" xmlns="http://www.w3.org/2000/svg" xmlns:xlink="http://www.w3.org/1999/xlink" x="0px" y="0px"
	 viewBox="0 0 138 79.1" style="enable-background:new 0 0 138 79.1;" xml:space="preserve">
<style type="text/css">
	.st0{fill:#FBF8F3;}
	.st1{fill:none;stroke:#B4A39A;stroke-width:1.5;stroke-linecap:round;stroke-linejoin:round;}
	.st2{enable-background:new    ;}
</style>
<g id="natural">
	<g id="bg_circle_1_">
		<circle class="st0" cx="55.8" cy="41.1" r="34.7"/>
	</g>
	<g id="line_drawing_1_">
		<path class="st1" d="M30.8,8.3c0,0-15.6,16.8-5.6,40.8s12.6,29.3,12.6,29.3"/>
		<path class="st1" d="M31,63.5c0,0-18.8-2.2-23.1-17.7s3.8-28.3,23.5-39.2c0,0,2.2,15,8.2,25.3C43.2,37.9,49,51.4,31,63.5z"/>
		<polyline class="st1" points="33.5,16.5 22.8,23.5 17.9,15.7 		"/>
		<path class="st1" d="M37.4,27.5c0,0-11.2,6.7-15.1,11.5c0,0-11.1-6.8-15.1-6.9"/>
		<path class="st1" d="M8.2,47.2c0,0,11.6,2.5,18.2,4.8c5-4.6,10.6-8.3,16.8-11"/>
	</g>
	<g id="text_1_">
		<g class="st2">
			<path d="M62.1,39.6l3.4-9.1H67l3.3,9.1h-1.5l-0.8-2.2h-3.7l-0.8,2.2H62.1z M64.7,36.3h2.9l-1.5-4.1L64.7,36.3z"/>
			<path d="M72.2,39.6v-9.1h1.4v8h4.1v1.1H72.2z"/>
			<path d="M79.8,39.6v-9.1h1.4v8h4.1v1.1H79.8z"/>
		</g>
		<g class="st2">
			<path d="M62.7,55.2v-9.1h1.4l4.6,6.9v-6.9H70v9.1h-1.4l-4.6-6.9v6.9H62.7z"/>
		</g>
		<g class="st2">
			<path d="M71.9,55.2l3.4-9.1h1.5l3.3,9.1h-1.5L77.9,53h-3.7l-0.8,2.2H71.9z M74.5,51.9h2.9L76,47.7L74.5,51.9z"/>
		</g>
		<g class="st2">
			<path d="M83.2,55.2v-8h-2.7v-1.1h6.7v1.1h-2.7v8H83.2z"/>
			<path d="M92.6,55.3c-0.6,0-1.2-0.1-1.8-0.4s-0.9-0.6-1.2-1.2c-0.3-0.5-0.5-1.2-0.5-2v-5.7h1.4v5.7c0,0.8,0.2,1.4,0.6,1.8
				c0.4,0.4,0.9,0.6,1.5,0.6c0.6,0,1.2-0.2,1.5-0.6c0.4-0.4,0.6-1,0.6-1.8v-5.7h1.4v5.7c0,0.8-0.2,1.5-0.5,2
				c-0.3,0.5-0.7,0.9-1.3,1.2S93.3,55.3,92.6,55.3z"/>
			<path d="M98.5,55.2v-9.1h3.1c0.7,0,1.3,0.1,1.8,0.4c0.5,0.2,0.8,0.6,1,1c0.2,0.4,0.3,0.9,0.3,1.4c0,0.6-0.1,1.1-0.4,1.5
				c-0.3,0.5-0.8,0.8-1.4,1l1.9,3.9h-1.6l-1.8-3.7h-1.6v3.7H98.5z M99.9,50.5h1.7c0.6,0,1.1-0.2,1.4-0.5c0.3-0.3,0.4-0.7,0.4-1.2
				s-0.1-0.9-0.4-1.2c-0.3-0.3-0.8-0.4-1.4-0.4h-1.7V50.5z"/>
			<path d="M106.5,55.2l3.4-9.1h1.5l3.3,9.1h-1.5l-0.8-2.2h-3.7l-0.8,2.2H106.5z M109.1,51.9h2.9l-1.5-4.1L109.1,51.9z"/>
			<path d="M116.6,55.2v-9.1h1.4v8h4.1v1.1H116.6z"/>
		</g>
	</g>
</g>
</svg>
