<?xml version="1.0" encoding="utf-8"?>
<!-- Generator: Adobe Illustrator 25.2.1, SVG Export Plug-In . SVG Version: 6.00 Build 0)  -->
<svg version="1.1" id="Layer_1" xmlns="http://www.w3.org/2000/svg" xmlns:xlink="http://www.w3.org/1999/xlink" x="0px" y="0px"
	 viewBox="0 0 138 79.1" style="enable-background:new 0 0 138 79.1;" xml:space="preserve">
<style type="text/css">
	.st0{fill:#FBF8F3;}
	.st1{fill:none;stroke:#B4A39A;stroke-width:1.5;stroke-linecap:round;stroke-linejoin:round;}
</style>
<g id="cruelty">
	<g id="bg_circle">
		<circle class="st0" cx="55.7" cy="41.1" r="34.7"/>
	</g>
	<g id="line_drawing">
		<path class="st1" d="M17.7,62.2c0,3.3,0.3,6.1,2.1,8.2"/>
		<path class="st1" d="M18.1,40.2c0.7,4.1,0.3,9.3-0.1,13.2"/>
		<path class="st1" d="M22.4,72.6c0,0-1.7-4.1-7.6-1.4c-2.8,1.3-3.3,2.7-3.7,4.1c-0.2,0.9,0.4,1.7,1.3,1.9c0.1,0,0.2,0,0.2,0h31.2
			c0.8,0,1.5-0.7,1.5-1.5v-1.2h-0.1c0.9,0.6,2,1,3.1,1c2.8,0,5-2.2,5-5s-2.2-5-5-5c-0.6,0-1.3,0.1-1.9,0.3h-0.1
			c0.5-1.4,0.8-3,0.8-4.5c0.2-11-12.8-21.1-15.3-23.8c0,0,2.5-5,1.5-8.4S49.8,12.7,47.5,7S29.8,24.5,29.8,24.5"/>
		<path class="st1" d="M20,51.3c-1.1,1.6-2.4,3.2-3.7,4.6c-2.8,2.7-0.7,7.8,2.4,4.9l3.7-3.6c0.9-1.1,2.3-1.8,3.7-1.7"/>
		<path class="st1" d="M20.4,40.7c0,0-5.8-0.7-8.4-4.8s7.6-10.1,12.4-9.6c0,0,5.8-19.9,6.7-22.5c0.9-2.6,5-5.6,4.9,0.7
			c-0.2,4.7-0.9,9.3-2.1,13.8"/>
		<path class="st1" d="M22.1,31.3c0,0,1.4,2.1,3.5,0"/>
	</g>
	<g id="text">
		<path d="M66.7,39.8c-0.8,0-1.7-0.2-2.4-0.6c-0.6-0.4-1.2-1-1.5-1.7c-0.3-0.8-0.5-1.6-0.5-2.4c0-0.9,0.2-1.7,0.5-2.5
			c0.4-0.6,0.9-1.2,1.5-1.6c0.7-0.4,1.6-0.6,2.4-0.6c0.9-0.1,1.9,0.2,2.6,0.8c0.7,0.5,1.2,1.3,1.3,2.1H69c-0.1-0.5-0.3-0.9-0.7-1.2
			c-1.2-0.8-2.8-0.6-3.8,0.4c-0.5,0.8-0.8,1.7-0.8,2.6c0,0.9,0.2,1.8,0.8,2.5c0.6,0.6,1.4,1,2.2,1c0.6,0,1.1-0.2,1.6-0.5
			c0.4-0.3,0.6-0.7,0.7-1.2h1.6c-0.1,0.8-0.6,1.6-1.3,2.1C68.6,39.5,67.7,39.8,66.7,39.8z"/>
		<path d="M72.7,39.6v-9.1h3.2c0.6,0,1.2,0.2,1.8,0.4c0.4,0.2,0.8,0.6,1,1c0.2,0.4,0.3,0.9,0.3,1.4c0,0.5-0.1,1-0.4,1.5
			c-0.4,0.5-0.8,0.8-1.4,1l1.9,3.8h-1.6L75.8,36h-1.7v3.6L72.7,39.6z M74.1,34.9h1.7c0.5,0,1-0.1,1.4-0.4c0.5-0.7,0.5-1.7,0-2.4
			c-0.4-0.3-0.9-0.4-1.4-0.4h-1.7L74.1,34.9z"/>
		<path d="M84.7,39.8c-0.6,0-1.2-0.1-1.8-0.4c-0.5-0.2-1-0.7-1.2-1.2c-0.3-0.6-0.5-1.3-0.5-2v-5.7h1.4v5.7c-0.1,0.7,0.2,1.3,0.6,1.8
			c0.4,0.4,1,0.5,1.5,0.5c0.6,0.1,1.2-0.1,1.6-0.5c0.4-0.5,0.5-1.2,0.5-1.8v-5.7h1.4v5.7c0.1,0.7-0.1,1.4-0.5,2
			c-0.2,0.5-0.7,1-1.2,1.2C86,39.7,85.4,39.8,84.7,39.8z"/>
		<path d="M90.6,39.6v-9.1h5.8v1.2H92v2.8h4v1.1h-4v2.9h4.4v1.1H90.6z"/>
		<path d="M98.7,39.6v-9.1h1.4v8h4.1v1.1H98.7z"/>
		<path d="M107,39.6v-7.9h-2.7v-1.2h6.8v1.2h-2.7v7.9L107,39.6z"/>
		<path d="M115.3,39.6v-3.3l-3-5.8h1.6l2.1,4.4l2.1-4.4h1.6l-3,5.8v3.3H115.3z"/>
		<path d="M62.6,55.2v-9.1h5.7v1.2H64v2.8h3.6v1.1H64v4H62.6z"/>
		<path d="M70.3,55.2v-9.1h3.2c0.6,0,1.2,0.1,1.7,0.4c0.5,0.2,0.8,0.6,1.1,1c0.2,0.4,0.3,0.9,0.3,1.4c0,0.5-0.1,1-0.4,1.5
			c-0.4,0.5-0.8,0.8-1.4,1l1.9,3.8h-1.6l-1.8-3.6h-1.6v3.6L70.3,55.2z M71.7,50.5h1.7c0.5,0,1-0.1,1.4-0.4c0.5-0.7,0.5-1.7,0-2.4
			c-0.4-0.3-0.9-0.4-1.4-0.4h-1.7V50.5z"/>
		<path d="M78.9,55.2v-9.1h5.8v1.2h-4.4v2.8h4v1.1h-4v2.9h4.4v1.1H78.9z"/>
		<path d="M87,55.2v-9.1h5.7v1.2h-4.4v2.8h4.1v1.1h-4.1v2.9h4.4v1.1H87z"/>
	</g>
</g>
</svg>
