<?xml version="1.0" encoding="utf-8"?>
<!-- Generator: Adobe Illustrator 25.2.1, SVG Export Plug-In . SVG Version: 6.00 Build 0)  -->
<svg version="1.1" id="Layer_1" xmlns="http://www.w3.org/2000/svg" xmlns:xlink="http://www.w3.org/1999/xlink" x="0px" y="0px"
	 viewBox="0 0 138 79.1" style="enable-background:new 0 0 138 79.1;" xml:space="preserve">
<style type="text/css">
	.st0{fill:#FBF8F3;}
	.st1{fill:none;stroke:#B4A39A;stroke-width:1.5;stroke-linecap:round;stroke-linejoin:round;}
	.st2{enable-background:new    ;}
</style>
<g id="love">
	<g id="bg_circle_2_">
		<circle class="st0" cx="55.9" cy="41.1" r="34.7"/>
	</g>
	<g id="line_drawing_2_">
		<path class="st1" d="M38.1,36c-12.8-14.7-27.4,2-16.6,16.1c4.6,6.2,10.2,11.7,16.6,16.1l0,0c6.4-4.4,12-9.9,16.6-16.1
			C65.5,38,50.9,21.3,38.1,36z"/>
		<path class="st1" d="M41.4,32.9c1.5-11.2-10-19.7-20.3-7.9C8.4,10.4-6.2,27,4.5,41.1c4.7,6.2,10.3,11.7,16.6,16.2l0,0l2.6-1.9"/>
	</g>
	<g id="text_2_">
		<g class="st2">
			<path d="M62.8,39.6v-9.1h3c1.1,0,1.9,0.2,2.6,0.6c0.7,0.4,1.2,0.9,1.5,1.6c0.3,0.7,0.5,1.5,0.5,2.4c0,0.9-0.2,1.7-0.5,2.4
				c-0.3,0.7-0.8,1.2-1.5,1.6c-0.7,0.4-1.6,0.6-2.6,0.6H62.8z M64.2,38.4h1.5c0.8,0,1.5-0.1,2-0.4s0.8-0.7,1-1.2
				c0.2-0.5,0.3-1.1,0.3-1.8s-0.1-1.3-0.3-1.8c-0.2-0.5-0.6-0.9-1-1.2c-0.5-0.3-1.1-0.4-2-0.4h-1.5V38.4z"/>
			<path d="M72.6,39.6v-9.1h5.8v1.1h-4.4v2.8h4v1.1h-4v2.9h4.4v1.1H72.6z"/>
			<path d="M80.6,39.6v-9.1H82v8h4.1v1.1H80.6z"/>
			<path d="M88.3,39.6v-9.1h1.4v9.1H88.3z"/>
			<path d="M94.9,39.6l-3.4-9.1H93l2.7,7.7l2.7-7.7h1.5l-3.4,9.1H94.9z"/>
			<path d="M101.7,39.6v-9.1h5.8v1.1h-4.4v2.8h4v1.1h-4v2.9h4.4v1.1H101.7z"/>
			<path d="M109.8,39.6v-9.1h3.1c0.7,0,1.3,0.1,1.8,0.4c0.5,0.2,0.8,0.6,1,1c0.2,0.4,0.3,0.9,0.3,1.4c0,0.6-0.1,1.1-0.4,1.5
				c-0.3,0.5-0.8,0.8-1.4,1l1.9,3.9h-1.6l-1.8-3.7h-1.6v3.7H109.8z M111.2,34.9h1.7c0.6,0,1.1-0.2,1.4-0.5c0.3-0.3,0.4-0.7,0.4-1.2
				s-0.1-0.9-0.4-1.2c-0.3-0.3-0.7-0.4-1.4-0.4h-1.7V34.9z"/>
			<path d="M118.3,39.6v-9.1h5.8v1.1h-4.4v2.8h4v1.1h-4v2.9h4.4v1.1H118.3z"/>
			<path d="M126.4,39.6v-9.1h3c1.1,0,1.9,0.2,2.6,0.6c0.7,0.4,1.2,0.9,1.5,1.6c0.3,0.7,0.5,1.5,0.5,2.4c0,0.9-0.2,1.7-0.5,2.4
				c-0.3,0.7-0.8,1.2-1.5,1.6c-0.7,0.4-1.6,0.6-2.6,0.6H126.4z M127.8,38.4h1.5c0.8,0,1.5-0.1,2-0.4c0.5-0.3,0.8-0.7,1-1.2
				c0.2-0.5,0.3-1.1,0.3-1.8s-0.1-1.3-0.3-1.8c-0.2-0.5-0.6-0.9-1-1.2c-0.5-0.3-1.1-0.4-2-0.4h-1.5V38.4z"/>
		</g>
		<g class="st2">
			<path d="M64.6,55.2l-2.5-9.1h1.5l1.8,7.5l2.1-7.5h1.5l2,7.5l1.8-7.5h1.5l-2.5,9.1h-1.6l-2-7.1l-2.1,7.1L64.6,55.2z"/>
			<path d="M76.3,55.2v-9.1h1.4v9.1H76.3z"/>
			<path d="M82.3,55.2v-8h-2.7v-1.1h6.7v1.1h-2.7v8H82.3z"/>
			<path d="M88.2,55.2v-9.1h1.4V50H94v-3.9h1.4v9.1H94v-4.1h-4.4v4.1H88.2z"/>
		</g>
		<g class="st2">
			<path d="M101.9,55.2v-9.1h1.4v8h4.1v1.1H101.9z"/>
		</g>
		<g class="st2">
			<path d="M112.9,55.3c-0.9,0-1.7-0.2-2.4-0.6c-0.7-0.4-1.2-1-1.6-1.7c-0.4-0.7-0.6-1.5-0.6-2.5s0.2-1.7,0.6-2.5
				c0.4-0.7,0.9-1.3,1.6-1.7c0.7-0.4,1.5-0.6,2.4-0.6s1.7,0.2,2.4,0.6c0.7,0.4,1.2,1,1.6,1.7c0.4,0.7,0.6,1.5,0.6,2.5
				s-0.2,1.7-0.6,2.5c-0.4,0.7-0.9,1.3-1.6,1.7C114.6,55.1,113.8,55.3,112.9,55.3z M112.9,54.1c0.6,0,1.2-0.1,1.6-0.4
				s0.8-0.7,1.1-1.2c0.3-0.5,0.4-1.1,0.4-1.9s-0.1-1.3-0.4-1.9c-0.3-0.5-0.6-0.9-1.1-1.2c-0.5-0.3-1-0.4-1.6-0.4s-1.2,0.1-1.6,0.4
				c-0.5,0.3-0.8,0.7-1.1,1.2c-0.3,0.5-0.4,1.1-0.4,1.9s0.1,1.3,0.4,1.9c0.3,0.5,0.6,0.9,1.1,1.2C111.7,54,112.3,54.1,112.9,54.1z"
				/>
		</g>
		<g class="st2">
			<path d="M122,55.2l-3.4-9.1h1.5l2.7,7.7l2.7-7.7h1.5l-3.4,9.1H122z"/>
			<path d="M128.8,55.2v-9.1h5.8v1.1h-4.4V50h4v1.1h-4v2.9h4.4v1.1H128.8z"/>
		</g>
	</g>
</g>
</svg>
