<?xml version="1.0" encoding="utf-8"?>
<!-- Generator: Adobe Illustrator 25.2.1, SVG Export Plug-In . SVG Version: 6.00 Build 0)  -->
<svg version="1.1" id="Layer_1" xmlns="http://www.w3.org/2000/svg" xmlns:xlink="http://www.w3.org/1999/xlink" x="0px" y="0px"
	 viewBox="0 0 138 79.1" style="enable-background:new 0 0 138 79.1;" xml:space="preserve">
<style type="text/css">
	.st0{fill:#FBF8F3;}
	.st1{fill:none;stroke:#B4A39A;stroke-width:1.5;stroke-linecap:round;stroke-linejoin:round;}
	.st2{enable-background:new    ;}
</style>
<g id="holistic">
	<g id="bg_circle_3_">
		<circle class="st0" cx="55.6" cy="41.1" r="34.7"/>
	</g>
	<g id="line_drawing_3_">
		<path class="st1" d="M28.2,61.9C0.7,62,3.3,37.6,3.3,37.6c5.2,0,10.3,0.7,15.3,2.1l1,0.3"/>
		<path class="st1" d="M28.2,61.9c23.2-9.7,0-35,0-35S4.4,52.6,28.2,61.9c0,0,24.3,3.1,25-23.9c-5.4-0.1-10.7,0.5-15.9,1.9l-0.6,0.2
			"/>
		<path class="st1" d="M33.4,33.9c0,0,4.5-3.4,8.1-4.3c1.9,2.5,2.7,5.7,2.4,8.8"/>
		<path class="st1" d="M22.1,33.9c0,0-4.6-3.4-8.1-4.3c-2,2.2-2.9,5.2-2.5,8.1"/>
	</g>
	<g id="text_3_">
		<g class="st2">
			<path d="M62.5,39.6v-9.1h1.4v3.9h4.4v-3.9h1.4v9.1h-1.4v-4.1h-4.4v4.1H62.5z"/>
			<path d="M76.4,39.7c-0.9,0-1.7-0.2-2.4-0.6c-0.7-0.4-1.2-1-1.6-1.7c-0.4-0.7-0.6-1.5-0.6-2.5s0.2-1.7,0.6-2.5
				c0.4-0.7,0.9-1.3,1.6-1.7c0.7-0.4,1.5-0.6,2.4-0.6s1.7,0.2,2.4,0.6c0.7,0.4,1.2,1,1.6,1.7c0.4,0.7,0.6,1.5,0.6,2.5
				s-0.2,1.7-0.6,2.5c-0.4,0.7-0.9,1.3-1.6,1.7C78.1,39.5,77.3,39.7,76.4,39.7z M76.4,38.5c0.6,0,1.2-0.1,1.6-0.4s0.8-0.7,1.1-1.2
				c0.3-0.5,0.4-1.1,0.4-1.9s-0.1-1.3-0.4-1.9c-0.3-0.5-0.6-0.9-1.1-1.2c-0.5-0.3-1-0.4-1.6-0.4s-1.2,0.1-1.6,0.4
				c-0.5,0.3-0.8,0.7-1.1,1.2c-0.3,0.5-0.4,1.1-0.4,1.9s0.1,1.3,0.4,1.9c0.3,0.5,0.6,0.9,1.1,1.2C75.2,38.4,75.8,38.5,76.4,38.5z"/>
			<path d="M83.1,39.6v-9.1h1.4v8h4.1v1.1H83.1z"/>
			<path d="M90.7,39.6v-9.1h1.4v9.1H90.7z"/>
		</g>
		<g class="st2">
			<path d="M97.6,39.7c-0.7,0-1.3-0.1-1.8-0.4c-0.5-0.2-0.9-0.6-1.2-1c-0.3-0.4-0.4-0.9-0.4-1.5h1.5c0,0.5,0.2,0.9,0.5,1.2
				s0.8,0.5,1.4,0.5c0.5,0,0.9-0.1,1.2-0.4c0.3-0.3,0.4-0.6,0.4-1c0-0.3-0.1-0.6-0.2-0.8c-0.1-0.2-0.3-0.4-0.6-0.5
				c-0.2-0.1-0.5-0.2-0.9-0.4c-0.3-0.1-0.7-0.2-1-0.3c-0.7-0.2-1.2-0.5-1.6-0.9c-0.4-0.4-0.5-0.9-0.5-1.5c0-0.5,0.1-1,0.4-1.3
				c0.2-0.4,0.6-0.7,1-0.9c0.4-0.2,1-0.3,1.6-0.3c0.6,0,1.1,0.1,1.6,0.3c0.4,0.2,0.8,0.5,1,0.9c0.3,0.4,0.4,0.8,0.4,1.3h-1.5
				c0-0.2-0.1-0.5-0.2-0.7c-0.1-0.2-0.3-0.4-0.5-0.5c-0.2-0.1-0.5-0.2-0.9-0.2c-0.4,0-0.8,0.1-1.1,0.3c-0.3,0.2-0.4,0.5-0.4,0.9
				c0,0.4,0.1,0.6,0.3,0.8s0.5,0.3,0.9,0.5c0.4,0.1,0.8,0.3,1.2,0.4c0.5,0.1,0.9,0.3,1.2,0.5s0.6,0.5,0.9,0.8
				c0.2,0.3,0.3,0.8,0.3,1.3c0,0.5-0.1,0.9-0.4,1.3c-0.2,0.4-0.6,0.7-1.1,1C98.9,39.6,98.3,39.7,97.6,39.7z"/>
		</g>
		<g class="st2">
			<path d="M104.9,39.6v-8h-2.7v-1.1h6.7v1.1h-2.7v8H104.9z"/>
			<path d="M110.9,39.6v-9.1h1.4v9.1H110.9z"/>
			<path d="M118.8,39.7c-0.9,0-1.7-0.2-2.3-0.6s-1.2-0.9-1.5-1.7c-0.4-0.7-0.5-1.5-0.5-2.5c0-0.9,0.2-1.8,0.5-2.5
				c0.4-0.7,0.9-1.3,1.5-1.7c0.7-0.4,1.4-0.6,2.3-0.6c1.1,0,1.9,0.3,2.6,0.8c0.7,0.5,1.1,1.2,1.3,2.2h-1.5c-0.1-0.5-0.4-0.9-0.8-1.3
				c-0.4-0.3-0.9-0.5-1.6-0.5c-0.9,0-1.6,0.3-2.2,0.9c-0.5,0.6-0.8,1.5-0.8,2.6c0,1.1,0.3,1.9,0.8,2.5c0.5,0.6,1.2,0.9,2.2,0.9
				c0.7,0,1.2-0.1,1.6-0.4c0.4-0.3,0.7-0.7,0.8-1.2h1.5c-0.2,0.9-0.6,1.6-1.3,2.1C120.7,39.5,119.8,39.7,118.8,39.7z"/>
		</g>
		<g class="st2">
			<path d="M64.4,55.2l-2.5-9.1h1.5l1.8,7.5l2.1-7.5h1.5l2,7.5l1.8-7.5h1.5l-2.5,9.1H70l-2-7.1L66,55.2L64.4,55.2z"/>
			<path d="M76,55.2v-9.1h5.8v1.1h-4.4V50h4v1.1h-4v2.9h4.4v1.1H76z"/>
			<path d="M84.1,55.2v-9.1h1.4v8h4.1v1.1H84.1z"/>
			<path d="M91.7,55.2v-9.1h1.4v8h4.1v1.1H91.7z"/>
			<path d="M99.4,55.2v-9.1h3.4c0.9,0,1.7,0.2,2.1,0.7c0.5,0.4,0.7,1,0.7,1.7c0,0.6-0.2,1-0.5,1.4c-0.3,0.3-0.7,0.6-1.1,0.7
				c0.3,0.1,0.7,0.2,0.9,0.4c0.3,0.2,0.5,0.5,0.6,0.8c0.2,0.3,0.2,0.7,0.2,1c0,0.5-0.1,0.9-0.3,1.3s-0.6,0.7-1,0.9
				c-0.4,0.2-1,0.3-1.6,0.3H99.4z M100.7,50h1.9c0.5,0,0.9-0.1,1.2-0.4s0.4-0.6,0.4-1c0-0.4-0.1-0.8-0.4-1c-0.3-0.3-0.7-0.4-1.2-0.4
				h-1.9V50z M100.7,54.1h2c0.6,0,1-0.1,1.3-0.4c0.3-0.3,0.5-0.6,0.5-1.1c0-0.5-0.2-0.8-0.5-1.1c-0.3-0.3-0.8-0.4-1.3-0.4h-2V54.1z"
				/>
			<path d="M108,55.2v-9.1h5.8v1.1h-4.4V50h4v1.1h-4v2.9h4.4v1.1H108z"/>
			<path d="M116.1,55.2v-9.1h1.4v9.1H116.1z"/>
			<path d="M119.9,55.2v-9.1h1.4l4.6,6.9v-6.9h1.4v9.1h-1.4l-4.6-6.9v6.9H119.9z"/>
			<path d="M133.7,55.3c-0.9,0-1.6-0.2-2.2-0.6c-0.6-0.4-1.1-0.9-1.5-1.6c-0.4-0.7-0.5-1.5-0.5-2.5c0-0.9,0.2-1.7,0.5-2.5
				c0.4-0.7,0.9-1.3,1.6-1.7c0.7-0.4,1.5-0.6,2.4-0.6c1,0,1.9,0.3,2.6,0.8s1.1,1.2,1.4,2.1h-1.6c-0.1-0.5-0.4-0.9-0.8-1.1
				c-0.4-0.3-0.9-0.4-1.6-0.4c-1,0-1.7,0.3-2.2,0.9s-0.8,1.5-0.8,2.5c0,1.1,0.3,1.9,0.8,2.5c0.5,0.6,1.3,0.9,2.1,0.9
				c0.9,0,1.6-0.3,2-0.8s0.7-1.2,0.8-2h-2.5v-1.1h3.9v4.9h-1.3l-0.1-1.3c-0.3,0.5-0.7,0.8-1.1,1.1C135,55.2,134.4,55.3,133.7,55.3z"
				/>
		</g>
	</g>
</g>
</svg>
