<svg xmlns="http://www.w3.org/2000/svg" viewBox="0 0 153.6 148.2"><path d="M107.2,32.2c-1-2-4.9-2.3-3.7.7a1.8,1.8,0,0,1-1.1-.3v.2l1.1.2c-.4,4,3.6,1.3,4.7-.4S107.4,32.6,107.2,32.2Z" transform="translate(0 -0.8)"/><path d="M107.6,37.7c-1.3-1.8-5.1-.7-3.5,1.6a2,2,0,0,0-.9.5h0a2.6,2.6,0,0,1,.9-.5c.4,4.3,3.6-.2,4.5-1.3A1.3,1.3,0,0,1,107.6,37.7Z" transform="translate(0 -0.8)"/><path d="M102.6,26.9a1.7,1.7,0,0,0,.2,1.7,2,2,0,0,0-.8.4v.2l.8-.6c.8,4.4,3.2-.9,4.6-1.3C105.9,27.8,104.1,24.9,102.6,26.9Z" transform="translate(0 -0.8)"/><path d="M102.1,50.1c.8-.5.8-2.3-.5-1.7s.1-.3.1-.5h-.1v.5C99.4,48.1,101.8,51.3,102.1,50.1Z" transform="translate(0 -0.8)"/><path d="M57,15.6a2.1,2.1,0,0,0,1-.4V16h.1a1.9,1.9,0,0,0-.1-.8c3.1-.5.4-2.9-1.1-3.5C57,12.8,54.8,15,57,15.6Z" transform="translate(0 -0.8)" fill="#0a0b09" fill-rule="evenodd"/><path d="M63,10.9a1.1,1.1,0,0,0,1.7-.3c.1.1.5.5.8.4a1.8,1.8,0,0,1-.8-.5C67.5,9,63.5,8.2,62.6,8S62,10.1,63,10.9Z" transform="translate(0 -0.8)" fill="#0a0b09" fill-rule="evenodd"/><path d="M47.1,28.6a2.3,2.3,0,0,1,.9.6V29l-.8-.4c1.5-2.1-2-3.2-3.2-1.6a1.3,1.3,0,0,1-1.3.3C44.1,27.9,46.3,33.1,47.1,28.6Z" transform="translate(0 -0.8)" fill="#0a0b09" fill-rule="evenodd"/><path d="M42.7,27.3h0Z" transform="translate(0 -0.8)" fill="#0a0b09" fill-rule="evenodd"/><path d="M66.5,9.6h.2a1.1,1.1,0,0,0,.1.5h.1a.7.7,0,0,1-.1-.5c2,.6.5-1.7.2-2.2S64.9,9.2,66.5,9.6Z" transform="translate(0 -0.8)" fill="#0a0b09" fill-rule="evenodd"/><path d="M70.4,54.5l-.7.2a.7.7,0,0,1,.1-.5h-.1a.4.4,0,0,0,0,.5c-2,.1-.5,1.9.4,2.4S71.7,55.1,70.4,54.5Z" transform="translate(0 -0.8)" fill="#0a0b09" fill-rule="evenodd"/><path d="M45.8,39.4a1.7,1.7,0,0,1,.9.5h.1l-.9-.5c1.8-3.6-3.5-2.4-4.4-1.1C42.5,39.5,45.4,43.6,45.8,39.4Z" transform="translate(0 -0.8)" fill="#0a0b09" fill-rule="evenodd"/><path d="M46.5,33l1.1-.2v-.2a2.9,2.9,0,0,1-1.1.3c1.1-4.4-3.6-1-4.7-.3C43,34.4,46.9,37,46.5,33Z" transform="translate(0 -0.8)" fill="#0a0b09" fill-rule="evenodd"/><path d="M85.2,10.5h.1a1.8,1.8,0,0,1-.8.5c.3.1.7-.3.8-.4,1.9,2.1,2.4-1.2,2.1-2.6C86.4,8.3,82.6,8.9,85.2,10.5Z" transform="translate(0 -0.8)" fill="#0a0b09" fill-rule="evenodd"/><path d="M82.6,9.7h.6a.7.7,0,0,1-.1.5h.1a4.3,4.3,0,0,1,.1-.5c1.8.1.5-1.7-.3-2.2S81.4,9.1,82.6,9.7Z" transform="translate(0 -0.8)" fill="#0a0b09" fill-rule="evenodd"/><path d="M91.5,15.2H92a1.9,1.9,0,0,0-.1.8H92a2.1,2.1,0,0,1,0-.8c3.1,1.6,1.4-2.7,1-3.4S89.2,14,91.5,15.2Z" transform="translate(0 -0.8)" fill="#0a0b09" fill-rule="evenodd"/><path d="M81.2,55a1,1,0,0,0-.9-.3.4.4,0,0,0,0-.5h-.1a1.2,1.2,0,0,1,.1.5c-2.1-.8-.7,1.9-.4,2.3S81.7,56.1,81.2,55Z" transform="translate(0 -0.8)" fill="#0a0b09" fill-rule="evenodd"/><path d="M73.2,10.2V9.9c1.3.6.8-1,.4-1.6s-1.9,1.5-.4,1.6-.1.3-.2.3Z" transform="translate(0 -0.8)" fill="#0a0b09" fill-rule="evenodd"/><path d="M103.8,47.6a1.7,1.7,0,0,1-.8-.6,4.6,4.6,0,0,0,1.3-4,3.3,3.3,0,0,1,1,0c-1.9,4,3.1,1.7,4.5,1.2-.7-1.9-4.1-5.2-4.5-1.3h-1a8,8,0,0,0-6.9-6.5c1.1,0,2.2-1.3,3.3-.8-2.2,2.2,1.8,1.9,2.6,1.8s-1.5-4.2-2.6-1.8l-.6-.3c3.6-1.6,3.4-7.7-1.2-7.1a2.7,2.7,0,0,1,2.9,2.2h-.4c.2-2.3-2-.7-2.7.2.8.5,3.3,2.3,2.7-.2h.5c.2,3.7-4.2,5.2-7.2,5.4a1.1,1.1,0,0,0-.3-.7c2.4-.5.6-3.3-1.2-3s-.9-.3-1.2-.7c.9,1.2-.9,6.4,2.4,3.7a3.1,3.1,0,0,1,.2.8h-.8a19.7,19.7,0,0,0-4.8.6,2.1,2.1,0,0,1,0-.8c4.5,1.3.4-3.3.8-4.9a1.4,1.4,0,0,1-.9,1.3c-2,.4-2.6,4,0,3.6a1.1,1.1,0,0,0,0,.8,21.5,21.5,0,0,0-8.8,4.7,1.5,1.5,0,0,1-.4-.6c4-.9-1-2.8-1.5-4.1a1.4,1.4,0,0,1-.2,1.5c-1.4,1.2-.1,4.2,1.6,2.7a2.1,2.1,0,0,0,.4.6,14.8,14.8,0,0,0-3.3,3.7h0c0-.7-.1-1.5-.1-2.2s-.1-2.4-.1-3.5a12,12,0,0,1,.7-4.6l.6.2c-.5,2.5,2.1,1.1,3,.1-.8-.6-3.3-3-3-.2h-.6c.6-1,.7-3.2,2.2-3-1.2,4,3,.5,4.5.7-.5-.1-1-.2-1.2-.8s-3.8-2.4-3.3,0h-.7c.6-3.2,6.4-3.4,6.6-2.4l-.3.2c-.9-1.6-1.7.4-1.8,1.3s3.2.2,1.8-1.2c1.9-.5.5,3.3-.8,1.3a1,1,0,0,0,1.1.8c0,.2.1.3.1.4-1.6.7.3,1.7,1.2,1.9s.4-3.2-1.1-1.9a.8.8,0,0,1-.1-.4,1.4,1.4,0,0,0,.9-1.9l.7-.2c-.7,3,2.5.6,3.1.1S86.5,27,87,29.6h-.7a2.3,2.3,0,0,0-.7-.7,1.7,1.7,0,0,0,1.7-2h.4c.5,1.7,1.7-.1,1.9-1s-3.1-.8-1.9.9h-.5c-.4-1.4-2.7-.9-2.1.6-.3-1,1.3-1.6,1.6-.5h-.2c-.4-1.1-1.1,0-1.3.6s1.3.3,1.4,0c-.6,2-4.3-.3-5.9,1.1a13.7,13.7,0,0,1,2.5-2.3l.2.3c-1.5.8.4,1.5,1.3,1.5s-.1-3-1.3-1.6v-.2A15.3,15.3,0,0,1,86,24.9h0l.2.2c-1.1,1.5,2.6,1.2.6-.5l1.4-.5c.1.1.1.2.2.2-1.4.9.4,1.5,1.3,1.5s.3-1.6-.6-1.9c.8-.1,2.1-.9,2.3.2-3.6.4.6,2.6.9,3.8a.9.9,0,0,1,.3-1.1c1.3-1,.6-3.9-1.1-2.7a3.3,3.3,0,0,1-.3-.6,8.7,8.7,0,0,1,4.5,1,3.9,3.9,0,0,1-.2.6c-2.2-2-1.7,1.9-1.6,2.6s4-1.7,1.6-2.6l.3-.6c1.3.9,2.5,2.6,2.2,4.3h-.6c.8-2.5-2.2-.6-2.7-.2s2.9,2.6,2.7.3H98a3.5,3.5,0,0,1-4.5,2.4c1.4,1.2,3.1-.6,4.2.2-2.7,1.5,1,2.3,2,2.6.4-1.4-.1-4.6-2-2.6a1,1,0,0,0-.5-.4,3.9,3.9,0,0,0,.8-5.5,2.4,2.4,0,0,0,1-.3c.5,2.9,4.1.9,3.7-1.4,0-.7.5-1,1-1.4s-1.1.7-1.7.5-5.5.1-3,2.2c-2.5.2-3.8-3.7-8.5-2.5a5.7,5.7,0,0,0,2.3-2.3l.5.3c-1.2,2.4,2.3,1.6,3,.7l.6-.7c1.8,3.7,3.4-1.8,3.7-2.8-1.8-.5-6.3.3-3.7,2.7a1.9,1.9,0,0,0-.7.8h0c-.6-.9-2.5-3.6-2.9-.8l-.4-.3a4,4,0,0,0,.4-2.2h.1l.7-.5c1.8,2.8,3-1,2.9-2.7-1.3.3-5.9.3-2.9,2.7l-.8.4c-.1-2-2.1-2.7-3.7-2h1a.5.5,0,0,1,0,.4c-1.8-1.1-1,1.4-.9,2.1s2.7-1.6.9-2a.9.9,0,0,0,.1-.5h-.1c1.5-.3,2.9,2.3,1.5,2.9.3-2-1.8-.1-2.1.2s2.6,1.6,2.1-.1h.4c-.5,2-2.2,3.2-4,4l-.2-.3c1.9-.5-.5-1.6-1-1.9s-.5,3,.9,1.9l.2.3c-1.3.4-3,1.7-4.2,1.4,1.6-1-.6-1.4-1.4-1.5a1,1,0,0,0,.5-1.4h.4c0,3,2.2-.3,3.2-.5s-.7.1-1-.3-3.1-.8-2.2.7h-.4a1.4,1.4,0,0,0-1.4-.6c.5-.3.2-1,.6-1.4.6,2,1.7-.5,1.9-1s-3.1-.4-1.9,1l-.3.2c-.2-.9-1.6-1.1-1.7,0,3.1-1.8.7,3.9-3.8,1.4.4-.5.5-1.7,1.3-1.5-1,1.8,1.4.8,2,.6s-1.7-2.5-2-.7h-.4c.6-.6,1.3-2.2,2.2-2-1.5,1.7,1.4,1.3,2.1,1.2s-1.4-3.1-2.1-1.3h-.3c.8-.5,2-2.3,3-1.5-2.8,1.8,1.5,1.8,2.3,2.6s-.5-.6-.3-1-1.1-3.3-2-1.7l-.4-.3a7.8,7.8,0,0,1,4-.9.8.8,0,0,1-.1.4c-2.1-1.2-.6,1.7-1,2.4s3.4-1.6,1-2.4c.1-.1.1-.2.1-.4A2.8,2.8,0,0,1,88.7,17c-.1,0-.2.1-.4,0,.6-1.9-1.6-.5-2.2-.2s2.3,2.1,2.2.3h.4a2.5,2.5,0,0,1-2.5,1.7,2.3,2.3,0,0,0,1.8-.3c.1.1.2.2.2.3-2.9.6.7,2.1,1.1,3.1a.9.9,0,0,1,.1-1c1.1-.9.3-3.2-1.1-2.1l-.2-.3c1.8-1,1.1-3.4-.5-4.2a9.4,9.4,0,0,0,.3-.9c2.6,2.7,2.4-2.5,2.1-3.1s-5,1.9-2.1,3.1a5.9,5.9,0,0,0-.4.8,5.3,5.3,0,0,0-4.1-.1c2-1.1,1.5-5-1.2-3.7a1.3,1.3,0,0,1,2,1.2h-.3c.6-2-1.6-.6-2.2-.3s2.2,2.1,2.2.3h.3a3.9,3.9,0,0,1-1.7,2.6l-.3-.2c1.9-.8-.5-1.6-1.1-1.9s-.2,3.1,1.1,1.9l.2.2a13.7,13.7,0,0,0-2,1.3l-.3-.3c1.9-.7-.6-1.6-1.1-1.8s-.3,3,1.1,1.8l.2.3-2.3,2c.4-.9-1-1.1-1.3-1.5s-.7,2.6.7,1.8a.4.4,0,0,0,.1.3,8.7,8.7,0,0,0-1.7,2.7v-.2l-.2-5.3h0L76,15c.1,2.1,1.7.1,2.1-.4s-2.7-1.3-2.1.4l-.4.2v-.3a6.5,6.5,0,0,1,.2-2.4h.4c-.8,1.5,1.2.7,1.7.6s-1.5-2.1-1.7-.6h-.4c.3-.7,1.3-2.8,2.2-2-2.3,1.6,1.4,1.6,2,2.3s-.4-.6-.2-.9-1-2.8-1.7-1.4l-.5-.3c1.5-2,6,.1,2.6,1.2,1.9.4,1.8-2.3.1-2.3a1.2,1.2,0,0,1,.2-.7c2.2,1.9,1.6-1.9,1.4-2.7S78,7.5,80.4,8.3a1.4,1.4,0,0,0-.2.7,4.4,4.4,0,0,0-1.6.2.7.7,0,0,0-.7-1.1c0-.1-.1-.3,0-.5,2.3,1.2.9-2.2.6-2.5s-2.8,2.3-.7,2.5v.6c-.6.1-.6.8,0,1-1.4-1.1,1.6-1.3.6.1a7.3,7.3,0,0,0-2.9,2.6l-.2-7.2h-.2a.6.6,0,0,1-.1-.4c3.1.6,1-2.5-.1-3.5-.8,1-3.1,3.8,0,3.5a.8.8,0,0,0,.1.4h-.3l-.2,5.2v2c-.3-1.6-3.5-2-2.9-3.5s1.2.2.9.6.2-.7-.3-.8V7.6c2.2-.3.3-2.2-.8-2.6s-1.6,3.6.7,2.6c.1.2,0,.4,0,.5a.8.8,0,0,0-.7,1.2A3,3,0,0,0,69.8,9a1.4,1.4,0,0,0-.2-.7c2.5-.9-.2-2.5-1.6-2.7s-.7,4.6,1.5,2.7a1.2,1.2,0,0,1,.2.7c-1.8,0-1.8,2.7.1,2.3-3.4-1.1,1.1-3.2,2.6-1.2l-.5.3c-2-2-1.5,1.5-1.9,2.3.6-.8,4.3-.6,2-2.3.9-.8,1.9,1.3,2.2,2h-.4c-.2-1.5-1.5-.2-1.8.6s2.6.9,1.8-.6h.4a4.9,4.9,0,0,1,.1,2.4v.2H74c.6-1.7-1.4-1-2.1-.4s2,2.4,2.1.4c.2-.1.3.4.4,1s-.1,2.1-.2,3.3a7.6,7.6,0,0,0,0,1.6,7.7,7.7,0,0,0-1.7-2.7.4.4,0,0,0,.1-.3c1.5.8,1.1-1.1.7-1.8s-1.8.6-1.3,1.5l-2.3-2,.2-.3c1.4,1.2,1.4-1,1.1-1.8s-3,1.1-1.1,1.8l-.3.3-2-1.3.2-.2c1.4,1.2,1.4-1,1.1-1.9s-3,1.1-1.2,1.9l-.2.2a3.9,3.9,0,0,1-1.7-2.6h.3c-.1,1.9,2,.4,2.1-.4s-2.7-1.5-2.1.4h-.3c-.2-1.1,1-1.7,2-1.2-2.7-1.3-3.2,2.6-1.3,3.7a5,5,0,0,0-4,.1l-.4-.8c3-1.4-.6-3.1-2.2-3.2,0,1.3-.5,5.7,2.1,3.2a1.9,1.9,0,0,1,.3.9c-1.6.8-2.2,3.2-.4,4.2l-.2.3c-2.8-1.1-.9,2.1-1,3.1.4-1,4-2.5,1.1-3.1,0-.1.1-.2.1-.3a2.5,2.5,0,0,0,1.9.3,2.4,2.4,0,0,1-2.5-1.7h.4c-.1,1.8,1.7.5,2.2-.3s-2.8-1.7-2.2.2c-.2.1-.3,0-.4,0a2.8,2.8,0,0,1,2.6-2.7c0,.2,0,.3.1.4-2.3.7.4,1.8.9,2.4s1.2-3.6-.9-2.4a.8.8,0,0,1-.1-.4,7.8,7.8,0,0,1,4,.9l-.4.3c-.5-1.1-2-.5-2.1.6s.5,1.5-.2,2.1,5.1-.7,2.3-2.6c1-.8,2.2.9,3,1.5h-.3c-.8-1.9-2,.3-2.1,1.3s3.6.5,2.1-1.2h.3a9.5,9.5,0,0,1,1.9,2.1H72c-.2-1.8-1.9,0-2,.8s2.9,1,2-.7c.8-.2.9,1,1.3,1.5-4.6,2.5-6.8-3.2-3.8-1.4-.1-1.1-1.5-.9-1.8,0s-.1-.1-.2-.2-1-1.4-1.9-1,1.2,3,1.9,1c.4.4.1,1.1.6,1.4a1.4,1.4,0,0,0-1.4.6h-.4c.7-2.9-2.2-.5-3.2-.4,1,.1,3.1,3.6,3.2.5h.4a1,1,0,0,0,.5,1.4c-.8.1-3,.5-1.4,1.5-1.2.3-2.9-1-4.2-1.4l.2-.3c1.5,1.1,1.3-1.1.9-1.9s-2.9,1.3-1,1.9l-.2.3c-1.9-.8-3.5-2-4-4h.4c-.4,1.8,1.5.8,2.2.1s-2.4-2.2-2.2-.2c-1.4-.6,0-3.2,1.4-2.9h0a1.1,1.1,0,0,0,.1.5c-1.8.4,0,1.7.9,2s.9-3.2-.9-2.1V16h1c-1.6-.7-3.6,0-3.7,2l-.8-.4c3-2.3-1.7-2.5-2.9-2.6-.2,1.7,1.1,5.4,2.9,2.6a1.8,1.8,0,0,0,.7.5h.1a4,4,0,0,0,.4,2.2l-.4.3c-.4-2.8-2.3-.1-3,.8h.1l-.7-.8c2.6-2.5-2-3.1-3.8-2.8.6,1.3,1.9,6.5,3.8,2.9l.6.7h0c.6.9,4.2,1.7,3-.7l.5-.3a5.7,5.7,0,0,0,2.3,2.3c-4.4-1.2-5.9,2.5-8.5,2.5,3.1-4.2-3.2-1.7-4.7-2.7.5.4,1,.7,1,1.4-.4,2.3,3.2,4.3,3.7,1.4a2.4,2.4,0,0,0,1,.3,3.9,3.9,0,0,0,.8,5.5h0l-.5.5c-1.9-2-2.3,1.2-2,2.6,1-.4,4.7-1.1,2-2.6,1.2-.8,2.8,1,4.2-.2A3.5,3.5,0,0,1,52,28.9h.6c-.1,2.4,2.1.7,2.8-.4-.9-.4-3.5-2.2-2.8.3-1.9-.5.5-3.7,1.6-4.4a1.4,1.4,0,0,1,.2.6c-2.4.9.3,2.5,1.7,2.6s.6-4.6-1.6-2.6a3.9,3.9,0,0,1-.2-.6,8.7,8.7,0,0,1,4.5-1c-.2.2-.2.4-.3.6s-2.3.5-1.7,1.7,1.3,1.2.9,2.1c.4-1.2,4.5-3.3.9-3.8.2-1.1,1.5-.3,2.3-.2-.8.3-.3,1.4-.5,1.9s2.6-.6,1.2-1.5c.1,0,.1-.1.2-.2l1.4.5c-.6.2-.4,1-.7,1.3s2.1.2,1.3-.8a.3.3,0,0,0,.1-.2,13.1,13.1,0,0,1,2.8,1.7v.2c-1.2-1.4-1.2,1-1.3,1.6s2.7-.7,1.3-1.5l.2-.3a13.7,13.7,0,0,1,2.5,2.3c-1.6-1.4-5.3.9-5.9-1.1.2.3,1.2.1,1.3,0s-.9-1.7-1.2-.6h-.2c.3-1.1,1.9-.5,1.6.5.6-1.5-1.7-2-2.1-.6h-.5c1.3-1.6-1.6-1-1.9-.8s1.5,2.5,1.9.9h.4a1.7,1.7,0,0,0,1.7,2,2.3,2.3,0,0,0-.7.7H63c.4-2.7-2.3-1-3.2.1,1,.5,3.8,3,3.2-.1l.7.2a1.4,1.4,0,0,0,.9,1.9.8.8,0,0,1-.1.4c-1.5-1.3-1.1,1.2-1.1,1.8s2.8-1.1,1.1-1.8a.5.5,0,0,0,.2-.4c.5.1.9-.3,1.1-.8-1.3,2-2.7-1.8-.8-1.3-1.5,1.4,1.1,1.2,1.7,1.2s-.9-2.9-1.7-1.3l-.3-.2c-.1-.9,6-.9,6.6,2.4h-.7c.5-2.5-3-2-3.4-.1s-.6.7-1.1.8c1.4-.3,5.6,3.6,4.5-.7,1.5-.1,1.6,2,2.2,3.1h-.6c.4-2.8-2.5-.3-2.9.2s3.5,2.3,2.9-.1l.6-.2c.6,1.2.7,3.3.7,5.4s-.1,3.3-.2,4.9A14.8,14.8,0,0,0,70,41.4a2.1,2.1,0,0,0,.4-.6c1,1.1,2.6-.3,2.1-1.7s-1.2-1.5-.7-2.5c-.3,1.3-5.7,3.1-1.5,4.1a1.5,1.5,0,0,1-.4.6c-1.1-1.5-3.8-1.8-3.9-3.6,4.2,1.3.5-3.1.8-4.6a1.4,1.4,0,0,1-1,1.2c-1.9.5-2.3,3.9.1,3.4v.8a20,20,0,0,0-4.8-1.9v-.8c1.7.5,2.4-1.8,1.2-2.8s-2-.8-2.1-2.1c.4,1.6-3.7,6.2.8,4.9a2.2,2.2,0,0,1,0,.8,19.9,19.9,0,0,0-4.9-.6h-.7a3.1,3.1,0,0,1,.2-.8c3.2,2.6,1.6-2.5,2.3-3.7a1,1,0,0,1-1.1.7c-1.8-.3-3.6,2.5-1.3,3a1.4,1.4,0,0,0-.2.7c-3-.2-7.4-1.7-7.2-5.4h.5c-.7,2.6,2.3.6,2.6.2s-2.9-2.3-2.6-.2h-.5a2.9,2.9,0,0,1,3-2.2c-4.6-.6-4.8,5.5-1.2,7.1l-.6.3c-1.2-2.5-2.6.5-2.7,1.9s4.8.3,2.7-1.9c1.1-.5,2.2.8,3.3.8a8,8,0,0,0-6.9,6.5h-1c-.6-4-3.7-.5-4.5,1.3.2.2.8-.2,1.1.2s5.2,1.2,3.4-1.4a3.3,3.3,0,0,1,1,0A4.6,4.6,0,0,0,47,47a3.2,3.2,0,0,1-.8.6c-.6-4.3-3.7.6-4.2,1.5,1.6,1.3,6,1.8,4.2-1.4l.9-.5H47c1.3,1.2,3.6,1.6,5,.4l.5.4c-2.5,1.2,1,2.2,1.7,2.3s0-4-1.7-2.3l-.4-.4.5-.4a3.1,3.1,0,0,1-1.2.5h0a1.8,1.8,0,0,0,.1-.6c2.4.1.7-2.2-.3-2.9-.5.9-2.4,3.5.2,2.9-1.7,2.3-6-1.7-4.6-4.4h.7c-2.2,2.8,2.4,1.9,3.2,1.6s-2.3-4.5-3.2-1.6l-.7-.2a5.8,5.8,0,0,1,3-4.1,1.9,1.9,0,0,0,.2.7c-2.8,1.2.4,2.9,2,3.1,0-1.2.7-5.4-1.9-3.1a1.2,1.2,0,0,1-.2-.8,12.5,12.5,0,0,1,4.4-1.3c0,.2.1.3.1.5-3.4-.5-.6,2.8.1,3.7,1.3-1,3-4.2,0-3.7a.7.7,0,0,1-.1-.5,15.9,15.9,0,0,1,3.8.2c0,.1-.1.2-.1.3-2.1-.9-1.3,1.7-.6,2.6.6-.6,3.2-2.4.7-2.6,0-.1.1-.2.1-.3a17.5,17.5,0,0,1,7.6,3.1c-2.7-1.6-9.6-2.2-9.3,2.5-.2-.1-.4,0-.6,0-.3-3.1-2.9-.4-3.5,1,1.2.4,5,2.3,3.6-.9a.6.6,0,0,1,.6,0,2,2,0,0,0,1.6,1.2c-.1.2-.2.3-.2.5-2.9-1.3-2,2.4-1,3.7.8-.6,4.8-3.3,1-3.6.3-.8,1.2-.8,1.7-1.4l.4.5h-.1c-1.4,2.2,1.6,1.9,2.9,1.6-.5-1-1.7-4.4-2.7-1.7a.8.8,0,0,1-.5-.5L60,43a1.5,1.5,0,0,1-2.7-1.5h.4c-1.1,1.7,1.3,1,2,.8s-1.5-2.6-2-.9h-.4a4.5,4.5,0,0,1,3.8-1.6.4.4,0,0,0,.1.3c-2.3-.2-.4,1.8.1,2.4s1.9-2.8-.1-2.4a.4.4,0,0,0-.1-.3A10.4,10.4,0,0,1,66,40.9l-.5.5c-2.2-2.3-2.6,1.5-2.2,3.1,1.2-.5,5.5-1.4,2.3-3.1,1.4-1.2,3.1,1.6,4.1,2.5h-.5c-.3-2.4-2.3-.3-2.8.8,1,.3,3.9,1.7,2.8-.8,1.9.7,3.9,4.1,3.9,6.2h0a3.3,3.3,0,0,0-2.7-.9.7.7,0,0,0-.1-.5c2.6-.4.4-2.4-.8-2.9-.3,1-1.7,4.1.8,2.9v.5a9.6,9.6,0,0,0-3.7.9,1.5,1.5,0,0,0-.1-.7c3.5-.3.6-3.2-1-3.9-.4,1.3-2.5,5.4,1,3.9.1,1.5-2.4,1.7-3.6,1.8a1.1,1.1,0,0,1,0-.6c2.2,1.1.9-1.8.7-2.4s-2.9,2.2-.8,2.4v.6c-3.1.7-3.8-3.9-.9-2.5a1.2,1.2,0,0,0-.9-.7.4.4,0,0,1,.1-.3c1.4,1.5,1.3-1.2,1.2-1.7s-2.8.9-1.2,1.7c-.1.1-.2.2-.2.3a1.6,1.6,0,0,0-1.4,2.1h-.7c-.3-3.2-3-.5-3.6,1,1.2.3,5.1,2.3,3.6-1h.7A2.5,2.5,0,0,0,61,51.8c0,.1-.1.2-.2.4-1.6-1.9-1.7,1.5-1.6,2s3.4-1,1.6-2l.3-.4a3.9,3.9,0,0,0,2.6,0c-1.9,1.3-3.4,3.2-5.6,4.1-.1-.1-.2-.2-.2-.3,2.9-.6-.5-2.5-1.2-2.9-.8,1.2-1.1,4.3,1.1,2.9l.2.3a8,8,0,0,1-3.7.6v-.6c2.7.1.8-2.4-.3-3.2-.5.9-2.6,3.9.3,3.2,0,.2-.1.4-.1.6-1.6-.2-3.4-1.3-3.6-2.9H51c-.4,2,1.6.5,2.1.1s-2.3-1.9-2.1-.1h-.4a1.8,1.8,0,0,1,.8-1.7h0a2.4,2.4,0,0,1,1.1-.6,4.2,4.2,0,0,0-1.2.4l-.3-.4c2.8-.3-.2-2.3-.8-2.7s-1.3,3.8.8,2.7c0,.2.1.3.2.5a1.2,1.2,0,0,0-.8.9h0c-.3,0-.7-.1-.9,0,0-3.4-3-.9-3.8.6,1.1.5,4.9,3,3.8-.6h.9a2.8,2.8,0,0,0,.1,2.5c-.2.1-.5.2-.6.4-1.7-2.7-2.9.9-2.8,2.5,1.2-.2,5.5-.2,2.8-2.5l.7-.3a4.7,4.7,0,0,0,2.6,2,2.3,2.3,0,0,0-.5.5c-2.8-2.2-2.8,2-2.2,3.7,1.3-.7,6-2.1,2.2-3.6.6-.9,2.4-.6,2.9.4-3.6.7.6,3,1.5,3.5.9-1.5,1.3-5.3-1.4-3.6l-.4-.6a7.2,7.2,0,0,0,3.5-.8l.3.3c-3,1,.8,1.9,1.3,2.8s-.3-.6,0-.9,0-3.2-1.3-1.9-.1-.2-.2-.3c2.1-1.1,3.8-3,5.9-4.3-2.5,1.9-5.2,5.6-3.2,8.6-.2.2-.5.4-.6.6-2.2-2.5-3,1.3-2.4,3,.9-.1,5.9-1.1,2.4-3l.7-.5a2.2,2.2,0,0,0,1.8.8l.3.5c-2.5,1.3.6,2.6,2,2.7s.2-5-2-2.7a1.4,1.4,0,0,1-.2-.6c.9-.1,1.8-.9,1.6-1.8h.6c-1,2.8,2,1,3,.6-.6-1.2-3-3.2-3-.6h-.6a2.1,2.1,0,0,0-.6-1c1.3,2-1.8,3.2-2.7,1.3,0-.1.2-.2.3-.3.5,2.1,1.7-.3,2.1-.8s-3-.8-2.1.8l-.4.2c-.3-1.2-.5-1.2.3-3.7h.3c-1.2,2.1,1.6,1.8,2.7,1s-2.2-3.7-2.7-1l-.3-.2c.5-1.5,3.2-4.9,6.1-5.4a1.8,1.8,0,0,0-.5,2.6l-.4.4c-1.9-2-2.5,1.3-1.9,2.8.7-.2,5-1.3,1.9-2.7l.5-.4c.6.8,2.3.9,2.7-.3l.3.2c-1,1.2.9,1.3,1.7.9s-1.2-2.8-1.7-.9c-.4-.5-.4-1.3-1.2-1.6,2.1,1.5-1.2,3-1.6.8h.3c-.1,1.5,1.3.4,1.7-.2s-2.1-1.4-1.7.2H68c-.1-1.8,2-2.2,3.4-1.8a.1.1,0,0,1-.1.1c-1.2-.5-.8,1.1-.3,1.6s1.9-1.4.4-1.5c0-.1,0-.2.1-.2h1.6c-.5,12.7-1.1,24-1.7,27.5h7.2c-.6-3.5-1.2-14.8-1.7-27.5h1.6c.1,0,.1.1.1.2s.1,1.2.4,1.5.9-2.1-.3-1.6a.1.1,0,0,1-.1-.1c1.4-.4,3.5,0,3.4,1.8h-.3c.4-1.6-1.2-.4-1.7-.2s1.8,1.7,1.7.2H82c-.4,2.2-3.7.7-1.6-.8-.8.3-.8,1.1-1.2,1.6-.5-1.9-1.6.5-1.7.9s2.7.3,1.7-.9a.2.2,0,0,0,.2-.2,1.7,1.7,0,0,0,2.8.3c.1.1.3.2.4.4-2.9,1.4,1.3,2.6,2,2.7.6-1.5,0-4.8-1.9-2.8l-.4-.4a1.7,1.7,0,0,0-.6-2.6c3,.5,5.7,3.9,6.2,5.4l-.4.2c-.4-2.7-2.3.4-2.6,1s3.9,1.1,2.7-1h.3c.7,2.1.7,2.4.2,3.7l-.3-.2c.9-1.7-1.3-1.3-2.1-.8s1.6,2.8,2,.8c.2.1.4.2.4.3-.9,1.9-4,.7-2.7-1.3a2.1,2.1,0,0,0-.6,1h-.6c0-2.6-2.4-.6-3,.6s4,2.2,3-.6h.6c-.2.9.7,1.7,1.6,1.8a1.4,1.4,0,0,1-.2.6c-2.2-2.4-2.1,2-1.9,2.6s4.3-1.5,1.9-2.6l.3-.5a2.2,2.2,0,0,0,1.8-.8l.7.5c-3.4,1.8,1.5,2.9,2.4,3,.6-1.7-.3-5.5-2.4-3a1.7,1.7,0,0,0-.6-.6c2-3.1-.7-6.7-3.2-8.6,3,2,5.6,5.3,9.5,5.1l-.4.6c-2.8-1.7-2.2,2.2-1.4,3.7,1-.8,5.1-2.7,1.5-3.6.5-1,2.3-1.3,2.9-.4-3.8,1.3,1.2,3.3,2.1,3.5.8-1.7.5-5.8-2.1-3.6a2.3,2.3,0,0,0-.5-.5,4.7,4.7,0,0,0,2.6-2l.7.3c-2.8,2.2,1.9,2.4,2.8,2.4.2-1.7-1.2-5-2.8-2.4l-.7-.4a3.2,3.2,0,0,0,.3-2.5h.8c-1.2,3.5,3,1.1,3.8.5-.8-1.6-3.9-3.7-3.8-.5a1.4,1.4,0,0,0-.9,0h0a1.8,1.8,0,0,0-.8-.9c.1-.2.2-.3.2-.5,2.2,1.1,1.5-1.7.8-2.8-.7.7-3.5,2.5-.8,2.8l-.3.4c-1.6-.7-2.4-1.6-3.3.6.8.2,3.1,1.1,2.1-.7a.5.5,0,0,1,.5,0h-.5v-.2a2.4,2.4,0,0,1,1.1.6h0a1.8,1.8,0,0,1,.8,1.7H99c.2-1.8-1.6-.7-2.2.1s2.6,1.9,2.2-.1h.4c-.2,1.6-2,2.7-3.6,2.9,0-.1-.1-.4-.1-.6,2.9.7.7-2.5.3-3.1s-2.9,3.3-.3,3.1c-.1.1,0,.4,0,.6a8,8,0,0,1-3.7-.6l.2-.3c2.2,1.4,1.8-1.7,1.1-2.9-.9.6-4,2.3-1.2,2.9,0,.1-.1.2-.2.3-2.2-.9-3.7-2.7-5.6-4.1a3.9,3.9,0,0,0,2.6,0l.3.4c-1.9,1.1.5,2,1.6,2s0-3.8-1.6-2c-.1-.2-.2-.3-.2-.4a2.5,2.5,0,0,0,1.5-1.5h.7c-1.6,3.2,2.5,1.4,3.6,1-.6-1.5-3.3-4.2-3.6-1h-.7a1.7,1.7,0,0,0-1.4-2.1c0-.1-.1-.2-.2-.3,1.6-.9-.4-1.7-1.3-1.8s-.1,3.2,1.3,1.8a.4.4,0,0,1,.1.3,1.2,1.2,0,0,0-.9.7c2.9-1.4,2.2,3.2-.9,2.5a1.3,1.3,0,0,0-.1-.6c2.2-.3.3-2.1-.7-2.5s-1.5,3.6.7,2.5a1.1,1.1,0,0,1,0,.6c-1.2-.1-3.7-.2-3.6-1.8,3.5,1.6,1.4-3,.9-3.8s-4.2,3.6-1,3.8v.7a9.6,9.6,0,0,0-3.7-.9v-.5c2.5,1.3,1.1-2.3.8-2.9s-3.3,2.6-.9,2.9v.5a3.3,3.3,0,0,0-2.7.9h0c0-2.1,2-5.5,3.9-6.2-1.2,2.5,1.9,1.1,2.7.8S81,41.6,80.8,44h-.5c1-.8,2.7-3.7,4.1-2.5-3.2,1.6,1.4,2.8,2.2,3,.6-1.6,0-5.2-2.1-3l-.6-.5a10.9,10.9,0,0,1,4.9-1.1v.3c-2-.4-.9,1.7-.1,2.4s2.4-2.6.1-2.4c0-.1.1-.2.1-.3s3,.4,3.7,1.6h-.3c-.5-1.7-1.8.1-2,1s3.1.8,2-.9h.4A1.5,1.5,0,0,1,90,43l.2.3a.8.8,0,0,1-.5.5c-.9-2.9-2.6,1.1-2.5,1.6s4.2.3,2.6-1.5l.4-.5c.5.6,1.4.6,1.7,1.4-3.7.2.2,3.1,1,3.6,1.1-1.3,1.8-5-1-3.7,0-.2-.1-.3-.2-.5A2,2,0,0,0,93.3,43a.6.6,0,0,1,.6,0c-1.4,3.1,2.5,1.3,3.6.9-.6-1.4-3.2-4-3.6-1-.1,0-.3-.1-.5,0,.3-4.7-6.6-4-9.3-2.5a17.5,17.5,0,0,1,7.6-3.1c0,.1.1.2.1.3-2.5.2.1,2.1.7,2.6s1.4-3.5-.6-2.6l-.2-.3a17,17,0,0,1,3.9-.2,4.3,4.3,0,0,1-.1.5c-2.9-.6-1.3,2.7,0,3.7.6-.8,3.5-4.2.1-3.7,0-.2.1-.3.1-.5a12.5,12.5,0,0,1,4.4,1.3,1.7,1.7,0,0,1-.2.8c-2.6-2.4-2,2.2-1.8,3.1s4.6-2,1.9-3.1a1.4,1.4,0,0,0,.2-.7,5.8,5.8,0,0,1,3,4.1l-.7.2c-1-3-3,.2-3.3,1.7,1.3.1,5.4,1.1,3.3-1.7h.7c1.4,2.7-2.9,6.7-4.6,4.4,2.6.6.6-2.1.2-2.9s-2.6,3-.3,2.9a1.1,1.1,0,0,0,.1.5,3.1,3.1,0,0,1-1.2-.5l.5.4a1,1,0,0,0-.5.4c-1.7-1.7-2,1.1-1.6,2.3s4.1-1.1,1.7-2.3l.5-.4c1.4,1.2,3.7.8,5-.4h-.1l.9.5c-1.8,3.5,2.6,2.4,4.3,1.4C107.1,48,104.6,43.3,103.8,47.6ZM86.5,27.2h.2a.7.7,0,0,1-.1.5C86.7,27.6,86.6,27.5,86.5,27.2Zm-23.2,0h.2l-.2.5Zm0,.5Zm12.8-5.4.5.2c-2,2.2,1.8,1.2,2.7,1.8s-.6-.4-.5-.8-1.7-2.8-2.2-1.1l-.4-.2a4.9,4.9,0,0,1,.4-1.1,7,7,0,0,0,3.2.6,1,1,0,0,1,.1.3c-1.8-.3-.3,1.5.1,1.9s1.5-2.2-.1-1.9v-.3c4-2.4,3.4,2.8,1.8.2-.2.6.4,1.3,1,1s.5,2.8,1.5,1.5l.3.2A20.1,20.1,0,0,0,82,26c-.1,0-.2-.2-.3-.5,2.6-.2-.1-2.1-.8-2.6s-.6.9-.7,1.4.6,2,1.5,1.3l.2.5-1.7,1.4-.3-.3c2.1-1-.8-1.8-1.5-2s.1,3.5,1.5,2l.2.3a15.4,15.4,0,0,0-1.7,1.9l-.2-.2c1.7-1.2-.9-1.4-1.6-1.5s.5,3.1,1.6,1.6h.2a13.6,13.6,0,0,0-2.2,3.9h0L76,28.1V25.7h.4c-.6,1.7,1.4.6,1.9.3s-1.9-1.9-1.9-.3H76a10.3,10.3,0,0,1-.1-1.7A3.4,3.4,0,0,1,76.1,22.3Zm-4.5,7.1h.2c1.1,1.5,1.7-.7,1.6-1.6s-3.3.3-1.6,1.5l-.2.2a10.7,10.7,0,0,0-1.8-1.9c.2-.1.2-.2.3-.3,1.5,1.5,1.8-1,1.5-2s-3.6,1-1.5,2l-.3.3-1.7-1.4.2-.5c2.2.9,1.4-1.8.8-2.7-.8.6-3.4,2.3-.8,2.6-.1.3-.2.5-.3.5s-1.7-1.3-2.6-1.4l.4-.2c1,1.3,1.7-.6,1.4-1.5a.8.8,0,0,0,1.1-1c-1.4,2.6-2.5-2.6,1.8-.2V22c-1.6-.3-.7,1.4-.1,1.9s1.9-2.2.1-1.9a1,1,0,0,1,.1-.3,7,7,0,0,0,3.2-.6,4.9,4.9,0,0,1,.4,1.1l-.5.2c-1.6-2.6-1.9,1.2-2.6,1.9.8-.6,4.7.5,2.7-1.8l.5-.2a5.7,5.7,0,0,1,.2,1.6,10.3,10.3,0,0,1-.1,1.7h-.4c0-1.6-1.5-.4-1.9.3s2.5,1.4,1.9-.3H74l-.2,7.5h0A15,15,0,0,0,71.6,29.4Z" transform="translate(0 -0.8)" fill="#0a0b09" fill-rule="evenodd"/><path d="M72.5,9l-.3.2Z" transform="translate(0 -0.8)" fill="#0a0b09" fill-rule="evenodd"/><path d="M55.3,31.3h0c.1-.1.3-.3.3-.4,1.7,1.2,1.6-1.2,1.1-2.2s-3.2,1.5-1.1,2.2Z" transform="translate(0 -0.8)" fill="#0a0b09" fill-rule="evenodd"/><path d="M76.8,9.9c1.4-.2-.3-1.4-.5-1.5s-.8,2.1.4,1.5a.4.4,0,0,0,.1.3h.1c-.1-.1-.2-.1-.2-.3Z" transform="translate(0 -0.8)" fill="#0a0b09" fill-rule="evenodd"/><path d="M48.1,50.5c1-.4,2-2.2.3-2.1v-.5h-.1a4.3,4.3,0,0,1,.1.5c-.1,0-.2,0-.2-.1C46.4,47.9,47.9,50.3,48.1,50.5Z" transform="translate(0 -0.8)" fill="#0a0b09" fill-rule="evenodd"/><path d="M90.9,57l.2-.3h0c-.1.1-.2.2-.2.3s-2.3.8-1.3,1.9a1,1,0,0,1,0,.9C90.1,58.9,93.8,58,90.9,57Z" transform="translate(0 -0.8)" fill="#0a0b09" fill-rule="evenodd"/><path d="M54.5,52.2c-.3-.9-1.7-2.5-2-.8H52a.5.5,0,0,1,.5,0C51.5,53.3,53.9,52.4,54.5,52.2Z" transform="translate(0 -0.8)" fill="#0a0b09" fill-rule="evenodd"/><polygon points="52.5 50.4 52.5 50.4 52.5 50.4 52.5 50.4" fill="#0a0b09" fill-rule="evenodd"/><path d="M84.1,34.3a1.4,1.4,0,0,1-.9-1.2,1.9,1.9,0,0,1-.9,2.2c-1,1.4,0,3.6,1.7,2.4a1.3,1.3,0,0,1-.1.9l.4-.2h-.2v-.7C86.6,38.2,86,34.6,84.1,34.3Z" transform="translate(0 -0.8)" fill="#0a0b09" fill-rule="evenodd"/><path d="M93.3,28.8a1.4,1.4,0,0,1-.2.7c-.7.9.3,2.5,1.2,1.5s.2.3.4.4h.1a.8.8,0,0,1-.4-.4C96.5,30.3,94,29.3,93.3,28.8Z" transform="translate(0 -0.8)" fill="#0a0b09" fill-rule="evenodd"/><path d="M48.1,142.3a3.3,3.3,0,0,1,1.5.4v.7a2.4,2.4,0,0,0-1.5-.6,1.2,1.2,0,0,0-1.3,1.1c0,.7.5,1,1.4,1.4s1.7.9,1.7,1.9a1.8,1.8,0,0,1-2,1.8,3,3,0,0,1-1.8-.6v-.7a2.9,2.9,0,0,0,1.8.7,1.3,1.3,0,0,0,1.4-1.2c0-.6-.5-1-1.4-1.4s-1.7-.8-1.7-1.8A1.7,1.7,0,0,1,48.1,142.3Zm6.9,0a3,3,0,0,1,1.5.4v.7a2.2,2.2,0,0,0-1.5-.6,1.2,1.2,0,0,0-1.3,1.1c0,.7.5,1,1.4,1.4s1.8.9,1.8,1.9a1.9,1.9,0,0,1-2.1,1.8,3.2,3.2,0,0,1-1.8-.6v-.7a3.1,3.1,0,0,0,1.8.7,1.3,1.3,0,0,0,1.4-1.2c0-.6-.4-1-1.4-1.4s-1.7-.8-1.7-1.8A1.7,1.7,0,0,1,55,142.3Zm20.2-.1a2.5,2.5,0,0,1,1.5.5v.6a3.3,3.3,0,0,0-1.5-.5,1.3,1.3,0,0,0-1.4,1.1c0,.6.5.9,1.5,1.4s1.7.9,1.7,1.8a1.9,1.9,0,0,1-2.1,1.9,2.9,2.9,0,0,1-1.7-.6v-.8a2.3,2.3,0,0,0,1.7.8c.8,0,1.5-.4,1.5-1.2s-.5-1-1.5-1.4-1.7-.9-1.7-1.9A1.8,1.8,0,0,1,75.2,142.2Zm25.4.1v6.6h-.5v-6.6Zm-35.3,0v6.6h-.5v-6.6Zm-64.7.1L2.3,148h0l1.8-5.6h.6L6.5,148h0l1.6-5.6h.7l-2,6.5H6.2l-1.8-5.6-1.8,5.6H1.9L0,142.4Zm31.6,0,3.7,5.4h0v-5.4h.6v6.5H36l-3.8-5.5h0v5.5h-.6v-6.5Zm-13.3,0v5.9h3v.6H18.3v-6.5Zm91.2,0c1.4,0,2.2.8,2.2,1.9s-.9,1.8-2.3,1.8h-.1l2.6,2.8h-.8l-2.5-2.8h-.1v2.8h-.6v-6.5Zm-84.6,0v5.9h3v.6H25v-6.5Zm93.2,0v.6H116v2.3h2.5v.5H116v2.5h2.7v.6h-3.3v-6.5Zm-75.7,0v.6H40.2v2.3h2.6v.5H40.2v2.5H43v.6H39.6v-6.5Zm38.6,0c1.4,0,2.4.7,2.4,2s-.9,2.1-2.4,2.1h-.9v2.3h-.6v-6.4Zm8,0,2.6,6.4h-.7l-.8-2.1H87.8l-.8,2.1h-.7l2.6-6.4Zm37,0v.5h-2.1v5.9h-.6v-5.9h-2.1v-.5Zm4.7,0c1.5,0,2.2.8,2.2,1.8s-.9,1.9-2.3,1.9h0l2.6,2.7h-.9l-2.5-2.7h-.1v2.7h-.6v-6.4Zm22.3,0v.5h-2.1v5.9h-.6v-5.9h-2.1v-.5Zm-8.1,0,2.6,6.4h-.7l-.8-2.1h-2.9l-.8,2.1h-.6l2.5-6.4Zm-5.5,0v.5h-2.7v2.3h2.6v.6h-2.6v2.5H140v.5h-3.3v-6.4Zm-124.8-.1v.6H12.5v2.3H15v.6H12.5v2.4h2.7v.6H11.9v-6.5Zm74,.8L88,146.2h2.5Zm56,0-1.3,3.1h2.5Zm-63.6-.2h-.9v3h.9c1.1,0,1.8-.5,1.8-1.5S82.7,142.9,81.6,142.9Zm28.4.1h-.9v2.6h.8c1.3,0,1.7-.6,1.7-1.3S111.1,143,110,143Zm21.3-.1h-1v2.6h.9c1.2,0,1.7-.5,1.7-1.3S132.3,142.9,131.3,142.9ZM47.1,94.2c8.8,0,15.4,7,15.4,16.1s-6.6,16.2-15.4,16.2-15.5-6.9-15.5-16.2S38.2,94.2,47.1,94.2Zm-37.2.6c6.7,0,10.1,3.5,10.1,8.1a7,7,0,0,1-4.7,6.9c3.8,1.2,5.7,3.9,5.7,7.5s-3.5,8.6-10.6,8.6H.5V94.8Zm71.1,0c10,0,16.5,6.2,16.5,15.5S90.8,125.9,81,125.9H73.4V94.8Zm31.9,0v13.5h16.4V94.8h3.9v31.1h-3.9v-14H112.9v14h-3.8V94.8Zm39.8,0v31.1h-3.9V94.8ZM47.1,97.9c-6,0-11.5,4.5-11.5,12.4s5.6,12.5,11.5,12.5,11.4-4.6,11.4-12.5S53,97.9,47.1,97.9ZM10.5,111.6H4.3v10.8h6c4.5,0,6.8-2.3,6.8-5.4S14.3,111.6,10.5,111.6ZM81.2,98.4H77.3v23.8h3.8c7.2,0,12.4-4.3,12.4-11.8S88.3,98.4,81.2,98.4Zm-71-.1H4.3v10.1H9.9c4.1,0,6.3-2.2,6.3-5.2S13.9,98.3,10.2,98.3Z" transform="translate(0 -0.8)" fill="#1a1919" fill-rule="evenodd"/></svg>