<?xml version="1.0" encoding="utf-8"?>
<!-- Generator: Adobe Illustrator 25.2.1, SVG Export Plug-In . SVG Version: 6.00 Build 0)  -->
<svg version="1.1" id="Layer_1" xmlns="http://www.w3.org/2000/svg" xmlns:xlink="http://www.w3.org/1999/xlink" x="0px" y="0px"
	 viewBox="0 0 138 79.1" style="enable-background:new 0 0 138 79.1;" xml:space="preserve">
<style type="text/css">
	.st0{fill:#FBF8F3;}
	.st1{fill:none;stroke:#B4A39A;stroke-width:1.5;stroke-linecap:round;stroke-linejoin:round;}
	.st2{enable-background:new    ;}
</style>
<g id="vegan">
	<g id="bg_circle_4_">
		<circle class="st0" cx="55.8" cy="41.1" r="34.7"/>
	</g>
	<g id="line_drawing_4_">
		<path class="st1" d="M58.6,20.7c0,0-18,18.8-23.6,54.5c0,0-17.3-42.2-33.3-63.1"/>
		<path class="st1" d="M44.9,42.8c-7.7-14.3-0.7-17.9,14.9-24.1C59.8,18.7,63,40.9,44.9,42.8z"/>
		<path class="st1" d="M18.9,40.1C28.1,22.8,19.7,18.4,1.4,11C1.4,11-2.4,37.7,18.9,40.1z"/>
	</g>
	<g id="text_4_">
		<g class="st2">
			<path d="M65.4,46.9l-3.4-9.1h1.5l2.7,7.7l2.7-7.7h1.5l-3.4,9.1H65.4z"/>
			<path d="M72.3,46.9v-9.1H78v1.1h-4.4v2.8h4v1.1h-4v2.9H78v1.1H72.3z"/>
			<path d="M84.3,47c-0.9,0-1.6-0.2-2.2-0.6c-0.6-0.4-1.1-0.9-1.5-1.6c-0.4-0.7-0.5-1.5-0.5-2.5c0-0.9,0.2-1.7,0.5-2.5
				c0.4-0.7,0.9-1.3,1.6-1.7c0.7-0.4,1.5-0.6,2.4-0.6c1,0,1.9,0.3,2.6,0.8s1.1,1.2,1.4,2.1h-1.6c-0.1-0.5-0.4-0.9-0.8-1.1
				c-0.4-0.3-0.9-0.4-1.6-0.4c-1,0-1.7,0.3-2.2,0.9s-0.8,1.5-0.8,2.5c0,1.1,0.3,1.9,0.8,2.5c0.5,0.6,1.3,0.9,2.1,0.9
				c0.9,0,1.6-0.3,2-0.8s0.7-1.2,0.8-2h-2.5V42h3.9v4.9h-1.3l-0.1-1.3c-0.3,0.5-0.7,0.8-1.1,1.1C85.6,46.9,85,47,84.3,47z"/>
			<path d="M90.3,46.9l3.4-9.1h1.5l3.3,9.1H97l-0.8-2.2h-3.7l-0.8,2.2H90.3z M92.9,43.6h2.9l-1.5-4.1L92.9,43.6z"/>
			<path d="M100.4,46.9v-9.1h1.4l4.6,6.9v-6.9h1.4v9.1h-1.4l-4.6-6.9v6.9H100.4z"/>
		</g>
	</g>
</g>
</svg>
