<svg version="1.2" xmlns="http://www.w3.org/2000/svg" viewBox="0 0 16 16" width="32" height="32">
	<title>icon_menu-yallingup-svg</title>
	<style>
		.s0 { fill: none;stroke: #a8a29e;stroke-width: 1.5 } 
		.s1 { fill: #a8a29e } 
	</style>
	<path id="Layer" class="s0" d="m8 15.3c-4-0.1-7.3-3.3-7.3-7.3 0-4 3.3-7.3 7.3-7.3 4 0 7.3 3.3 7.3 7.3 0 4-3.3 7.2-7.3 7.2z"/>
	<path id="Y" class="s1" d="m11.4 4.1q0.2 0 0.3 0.1 0.1 0.1 0.1 0.3 0 0.3-0.1 0.4-0.1 0.1-0.3 0.1h-0.5l-2.3 3.7v2.4h1.5q0.3 0 0.3 0.1 0.1 0.1 0.1 0.3 0 0.3-0.1 0.4 0 0.1-0.3 0.1h-4q-0.2 0-0.3-0.1-0.1-0.1-0.1-0.4 0-0.2 0.1-0.3 0.1-0.1 0.3-0.1h1.5v-2.4l-2.3-3.7h-0.5q-0.2 0-0.3-0.1-0.1-0.1-0.1-0.4 0-0.2 0.1-0.3 0.1-0.1 0.3-0.1h2.3q0.2 0 0.3 0.1 0.1 0.1 0.1 0.3 0 0.3-0.1 0.4-0.1 0.1-0.3 0.1h-0.7l1.7 2.7 1.7-2.7h-0.4q-0.3 0-0.4-0.1-0.1-0.1-0.1-0.4 0-0.2 0.1-0.3 0.1-0.1 0.4-0.1z"/>
</svg>