<svg xmlns="http://www.w3.org/2000/svg" width="482.038" height="89.905" viewBox="0 0 482.038 89.905">
  <g id="AfterPay" transform="translate(-38 -144.547)">
    <path id="Path_4413" data-name="Path 4413" d="M77.7,188.5a13.6,13.6,0,1,0-13.6,13.8A13.412,13.412,0,0,0,77.7,188.5Zm.1,24.1v-6.3a20.425,20.425,0,0,1-15.8,7c-13.7,0-24-10.6-24-24.8s10.8-24.9,24.3-24.9a20.349,20.349,0,0,1,15.5,6.9v-6.1H90v48.2H77.8Z" fill="#302118"/>
    <path id="Path_4414" data-name="Path 4414" d="M149.6,201.9c-4.3,0-5.5-1.5-5.5-5.6V175H152V164.5h-7.9V152.8H131.5v11.7H115.3v-2.9c0-4,1.6-5.6,6-5.6h2.8v-9.3h-6c-10.4,0-15.3,3.3-15.3,13.3v4.6h-7V175h7v37.7h12.6V175h16.2v23.6c0,9.8,3.9,14.1,14.1,14.1h6.5V202h-2.6Z" fill="#302118"/>
    <path id="Path_4415" data-name="Path 4415" d="M194.7,184.2c-.9-6.3-6.2-10-12.4-10s-11.3,3.7-12.6,10Zm-25.1,7.5c.9,7.1,6.2,11.2,12.9,11.2a13.293,13.293,0,0,0,11.8-6.3h12.9c-3,10.2-12.5,16.8-24.9,16.8-15.1,0-25.6-10.2-25.6-24.7s11.2-25,25.9-25c14.9,0,25.6,10.6,25.6,25a15.526,15.526,0,0,1-.3,3.1H169.6Z" fill="#302118"/>
    <path id="Path_4416" data-name="Path 4416" d="M288,188.5a13.6,13.6,0,1,0-13.6,13.8A13.6,13.6,0,0,0,288,188.5Zm-39.5-24h12.3v6.3a20.179,20.179,0,0,1,15.8-7.1c13.5,0,24,10.7,24,24.8,0,14.2-10.8,24.9-24.3,24.9a19.518,19.518,0,0,1-15.1-6.5v25.5H248.5V164.5Z" fill="#302118"/>
    <path id="Path_4417" data-name="Path 4417" d="M344.8,188.5a13.6,13.6,0,1,0-13.6,13.8A13.412,13.412,0,0,0,344.8,188.5Zm.1,24.1v-6.3a20.425,20.425,0,0,1-15.8,7c-13.7,0-24-10.6-24-24.8s10.8-24.9,24.3-24.9a20.349,20.349,0,0,1,15.5,6.9v-6.1h12.3v48.2H344.9Z" fill="#302118"/>
    <path id="Path_4418" data-name="Path 4418" d="M226.4,169.2a12.38,12.38,0,0,1,10.8-5.6,12.574,12.574,0,0,1,5.4,1.1V177s-4.6-2.8-8.8-2.2-6.9,4.3-6.9,9.3v28.5H214.2V164.4h12.3v4.8Z" fill="#302118"/>
    <path id="Path_4419" data-name="Path 4419" d="M414.4,164.5l-31,67.8H370.3l12.2-26.2L362,164.5h14.8l12,27.8,12.3-27.8Z" fill="#302118"/>
    <path id="Path_4420" data-name="Path 4420" d="M513.2,163.4l-30.7-17.1c-9-5-20.3,1.3-20.3,11.3v1.8a4.265,4.265,0,0,0,2.3,3.8l5.8,3.2a2.5,2.5,0,0,0,3.8-2.1v-4.4a2.97,2.97,0,0,1,4.4-2.5l26.6,14.8a2.751,2.751,0,0,1,0,4.9L478.6,192a2.936,2.936,0,0,1-4.4-2.5v-2.3c0-10.1-11.3-16.3-20.3-11.3L423.2,193a12.834,12.834,0,0,0,0,22.6l30.7,17.1c9,5,20.3-1.3,20.3-11.3v-1.8a4.382,4.382,0,0,0-2.3-3.8l-5.8-3.2a2.5,2.5,0,0,0-3.8,2.1v4.4a2.97,2.97,0,0,1-4.4,2.5l-26.6-14.8a2.751,2.751,0,0,1,0-4.9l26.6-14.8a2.936,2.936,0,0,1,4.4,2.5v2.3c0,10.1,11.3,16.3,20.3,11.3l30.7-17.1A12.884,12.884,0,0,0,513.2,163.4Z" fill="#302118"/>
  </g>
</svg>
